<svg xmlns="http://www.w3.org/2000/svg" width="256" height="256"><path fill-opacity=".016" d="M0 128.004v128.004l128.25-.254 128.25-.254.254-127.75L257.008 0H0v128.004m.485.496c0 70.4.119 99.053.265 63.672.146-35.38.146-92.98 0-128C.604 29.153.485 58.1.485 128.5" fill="#1976D2" fill-rule="evenodd"/><path fill-opacity=".275" d="M33.982 2.034c-.991 1.85.183 16.67 2.625 33.147.529 3.568.443 3.691-2.781 4-3.104.298-3.874 1.219-11.549 13.819l-8.223 13.5-.027 94.75L14 256h227l-.027-94.75-.027-94.75-8.223-13.5-8.223-13.5-5.801-.301c-4.912-.256-5.725-.562-5.303-2 .274-.935 1.221-4.555 2.104-8.045 2.516-9.948 2.689-9.826-22.139-15.576-11.474-2.657-21.713-5.145-22.754-5.529-1.041-.385-2.391-2.24-3-4.124C166.534.606 166.322.491 160.75.2c-6.108-.318-6.342-.174-4.698 2.898 1.148 2.145 1.215 2.147-8.385-.259-6.409-1.606-7.894.147-10.737 12.684-1.925 8.487-2.845 10.869-4.43 11.467-2.538.959-2.839-.071-4.478-15.284L126.761 0H80.916C35.835 0 35.052.034 33.982 2.034" fill="#1976D2" fill-rule="evenodd"/><path fill-opacity=".318" d="M34.694 1.786c-1.515 1.673-1.49 2.978.335 17.7 2.478 19.979 2.484 19.511-.279 19.529-1.237.009-2.765.346-3.395.75-.63.404-4.792 6.81-9.249 14.235l-8.103 13.5.114 94.5c.063 51.975.283 93.825.488 93C14.919 253.739 24 80.322 24 75.594 24 74.146 33.456 74 127.5 74H231v2.348c0 1.292 1.124 23.904 2.497 50.25 1.374 26.346 3.422 65.902 4.552 87.902 1.13 22 2.221 40.45 2.424 41 .203.55.404-41.525.447-93.5l.077-94.5-8.103-13.5c-4.457-7.425-8.619-13.831-9.249-14.235-.63-.404-3.282-.741-5.895-.75-2.613-.008-4.745-.352-4.738-.765.006-.413.676-3.225 1.488-6.25 1.678-6.253 1.861-9.882.597-11.877-.501-.792-10.525-3.637-23.601-6.7-12.501-2.928-22.826-5.458-22.943-5.623-.118-.165-.643-1.875-1.167-3.8-.933-3.428-1.07-3.506-6.669-3.8-6.109-.32-6.315-.186-4.608 3.003 1.027 1.919.898 2.025-1.75 1.43-1.573-.354-5.175-.924-8.005-1.267-6.276-.762-6.263-.78-9.45 13.384-1.414 6.287-2.809 10.308-3.605 10.4-.715.083-1.861.195-2.549.25-.876.07-1.699-3.937-2.75-13.4L126.5.5 81.414.24C39.022-.005 36.231.088 34.694 1.786m112.425 16.657c-.616 2.443-1.119 4.629-1.119 4.856 0 .227 2.321-.046 5.158-.607 4.661-.921 5.316-.825 6.795 1.002.9 1.112 3.631 10.41 6.067 20.664L168.45 63h28.177l4.142-17.711c2.278-9.741 4.035-17.818 3.904-17.949-.209-.21-55.495-13.34-56.169-13.34-.146 0-.77 1.999-1.385 4.443M84.415 84.421c-6.203 2.701-9.923 10.379-8.373 17.28.554 2.464 2.277 5.129 4.906 7.585L85 113.072v9.915c0 5.453.502 12.299 1.116 15.214 2.75 13.058 11.665 24.433 23.569 30.071 6.394 3.029 7.494 3.228 17.815 3.228 10.321 0 11.421-.199 17.815-3.228 11.904-5.638 20.819-17.013 23.569-30.071.614-2.915 1.116-9.829 1.116-15.364v-10.065l4.064-3.636c6.908-6.18 7.119-15.153.512-21.76-11.404-11.404-30.744 2.378-23.684 16.876 1.138 2.336 3.458 5.148 5.156 6.248l3.087 2-.344 13c-.281 10.602-.733 13.853-2.455 17.622-3.031 6.638-8.656 12.403-15.175 15.551-4.73 2.285-6.977 2.733-13.661 2.724-9.708-.014-15.65-2.491-22.607-9.424C98.048 145.151 96 138.815 96 124.46v-11.465l3.993-3.607c4.953-4.475 6.627-9.373 5.118-14.975-2.399-8.91-12.254-13.667-20.696-9.992M71.827 255.75c30.98.147 81.38.147 112 0 30.62-.147 5.273-.267-56.327-.267-61.6 0-86.653.12-55.673.267" fill="#1976D2" fill-rule="evenodd"/><path fill-opacity=".984" d="M34.927 1.588c-1.094 1.318-1.019 4.336.44 17.75.967 8.889 1.986 16.95 2.263 17.912.383 1.329-.087 1.75-1.952 1.75-3.683 0-5.676 2.3-14.043 16.206L13.99 67.911l.255 92.295.255 92.294 4.294-86c2.362-47.3 4.539-87.687 4.838-89.75l.544-3.75h206.701l.534 4.25c.293 2.337 2.36 41.375 4.592 86.75 2.232 45.375 4.201 83.85 4.375 85.5.175 1.65.273-38.85.22-90l-.098-93-7.757-12.5c-4.267-6.875-8.516-13.062-9.442-13.75-.926-.688-3.622-1.25-5.992-1.25S213 38.563 213 38.028c0-.534.749-4.381 1.665-8.549 1.487-6.768 1.503-7.739.151-9.092-.833-.833-11.56-3.855-23.837-6.716L168.657 8.47l-1.412-4.235L165.833 0h-5.452c-5.08 0-5.381.132-4.416 1.934 1.861 3.479 1.125 3.751-6.001 2.221-9.027-1.938-9.381-1.603-12.578 11.925-2.408 10.19-3.327 11.874-6.491 11.905-1.299.012-1.834-2.026-2.815-10.735C125.994-1.264 126.508 0 121.067 0h-4.71l1.794 15.194c.986 8.357 1.694 15.254 1.571 15.327-.122.073-9.222 2.266-20.222 4.874-27.796 6.589-27.349 6.454-28.487 8.581-.742 1.386-.472 4.266.983 10.505C73.098 59.209 74 63.285 74 63.539c0 .253-5.189.461-11.531.461-8.32 0-11.657-.348-11.98-1.25-.761-2.124-6.654-52.919-6.192-53.38.239-.239 15.457-2.218 33.819-4.397C96.477 2.794 112.4.844 113.5.641c1.1-.203-15.832-.43-37.628-.505-35.086-.12-39.778.046-40.945 1.452m112.585 12.785c-.182.62-.774 3.04-1.315 5.377-1.101 4.754-.571 5.078 5.472 3.345 5.834-1.673 6.68-.147 11.87 21.407L168.233 64h28.591l4.183-17.53c2.301-9.642 3.96-18.113 3.687-18.824-.273-.712-3.803-2.026-7.845-2.921s-16.722-3.844-28.178-6.553c-13.965-3.303-20.937-4.555-21.159-3.799M116.18 41.552c-18.876 4.54-34.459 8.41-34.629 8.601-.17.191.424 3.272 1.32 6.847l1.629 6.5 36.75.262c20.213.145 36.75.077 36.75-.15 0-.737-7.08-30.027-7.293-30.173-.114-.078-15.651 3.573-34.527 8.113m-83.43 13.9C30.688 58.979 29 62.233 29 62.683c0 .449 2.524.817 5.61.817h5.609l-.601-5c-.33-2.75-.605-6.013-.609-7.25-.016-3.984-2.414-2.374-6.259 4.202m176.254.027c-.673 3.564-1.286 6.751-1.363 7.082-.078.331 4.022.677 9.109.77 5.088.093 9.25-.199 9.25-.648 0-.45-1.687-3.704-3.75-7.231-3.647-6.238-3.864-6.414-7.887-6.433L210.226 49l-1.222 6.479M82.041 86.619c-6.024 5.069-7.548 11.402-4.361 18.12.925 1.948 3.133 4.398 4.908 5.445l3.226 1.904.343 14.206c.327 13.547.491 14.518 3.528 20.929 15.476 32.669 60.154 32.669 75.63 0 3.037-6.411 3.201-7.382 3.528-20.929l.343-14.206 3.226-1.904c1.775-1.047 3.983-3.497 4.908-5.445 3.187-6.718 1.663-13.051-4.361-18.12-6.263-5.27-17.805-2.677-21.353 4.798-3.41 7.186-1.077 15.451 5.428 19.231l3.186 1.852-.439 12.537c-.513 14.652-2.598 20.607-9.68 27.65-6.826 6.788-12.019 8.813-22.601 8.813-10.582 0-15.775-2.025-22.601-8.813-7.082-7.043-9.167-12.998-9.68-27.65L94.78 112.5l3.186-1.852c6.505-3.78 8.838-12.045 5.428-19.231-3.548-7.475-15.09-10.068-21.353-4.798m5.53 7.952c-.864.865-1.571 2.43-1.571 3.479 0 1.686.298 1.771 2.574.734 1.98-.902 3.018-.895 4.5.03C94.78 99.88 95 99.735 95 97.544c0-1.422-.822-2.914-1.934-3.509-2.628-1.406-3.652-1.306-5.495.536m74.179-.491c-.963.561-1.75 2.126-1.75 3.478 0 2.177.221 2.321 1.926 1.256 1.482-.925 2.52-.932 4.5-.03 2.276 1.037 2.574.952 2.574-.734 0-2.138-2.521-5.066-4.321-5.02-.649.017-1.966.489-2.929 1.05" fill="#1976D2" fill-rule="evenodd"/></svg>